PathFileType	4	(X/Y/Z)	/Users/itak/Documents/Research/Walk-IL/dataset/trc/00143_00007.trc
DataRate	CameraRate	NumFrames	NumMarkers	Units	OrigDataRate	OrigDataStartFrame	OrigNumFrames
100.000000	100.000000	4	53	mm	100.000000	200	535
Frame#	Time	RPSI			LPSI			L3			STRN			T10			C7			CLAV			RBAK			LBAK			LSHO			LUPA			LAEL			LAOL			LWTS			LWPS			LFRA			LIFD			LHPS			LHTS			RSHO			RUPA			RAEL			RAOL			RWTS			RWPS			RFRA			RIFD			RHTS			RHPS			RBHD			LFHD			RFHD			LBHD			LHIP			RHIP			RASI			LASI			LKNE			LTHI			LANK			LTIP			LTOE			LMT1			LMT5			LHEE			RKNE			RTHI			RANK			RTIP			RTOE			RMT1			RMT5			RHEE			
		X1	Y1	Z1	X2	Y2	Z2	X3	Y3	Z3	X4	Y4	Z4	X5	Y5	Z5	X6	Y6	Z6	X7	Y7	Z7	X8	Y8	Z8	X9	Y9	Z9	X10	Y10	Z10	X11	Y11	Z11	X12	Y12	Z12	X13	Y13	Z13	X14	Y14	Z14	X15	Y15	Z15	X16	Y16	Z16	X17	Y17	Z17	X18	Y18	Z18	X19	Y19	Z19	X20	Y20	Z20	X21	Y21	Z21	X22	Y22	Z22	X23	Y23	Z23	X24	Y24	Z24	X25	Y25	Z25	X26	Y26	Z26	X27	Y27	Z27	X28	Y28	Z28	X29	Y29	Z29	X30	Y30	Z30	X31	Y31	Z31	X32	Y32	Z32	X33	Y33	Z33	X34	Y34	Z34	X35	Y35	Z35	X36	Y36	Z36	X37	Y37	Z37	X38	Y38	Z38	X39	Y39	Z39	X40	Y40	Z40	X41	Y41	Z41	X42	Y42	Z42	X43	Y43	Z43	X44	Y44	Z44	X45	Y45	Z45	X46	Y46	Z46	X47	Y47	Z47	X48	Y48	Z48	X49	Y49	Z49	X50	Y50	Z50	X51	Y51	Z51	X52	Y52	Z52	X53	Y53	Z53	

201	2	-534.55859375	1111.6748046875	1254.282592773438	-535.228759765625	1114.306030273438	1118.807373046875	-540.3385009765625	1152.522705078125	1187.8251953125	-301.4482727050781	1329.303588867188	1180.734008789062	-555.372314453125	1303.673706054688	1201.768920898438	-498.6549377441406	1591.856079101562	1175.67822265625	-325.868408203125	1466.35009765625	1169.328369140625	-563.107177734375	1418.159912109375	1276.907104492188	-517.2725830078125	1569.625854492188	1076.240356445312	-442.2419128417969	1543.145141601562	998.9575805664062	-491.58837890625	1413.701049804688	939.0704956054688	-526.7329711914062	1197.746337890625	929.1950073242188	-581.3010864257812	1202.772216796875	999.8101806640625	-485.6575622558594	922.1183471679688	967.2522583007812	-575.4633178710938	918.9142456054688	956.43408203125	-539.0149536132812	1080.775146484375	928.5464477539062	-519.5783081054688	730.9954223632812	991.9902954101562	-568.33349609375	839.1272583007812	955.2359619140625	-498.0390625	832.7155151367188	960.0770874023438	-424.5736694335938	1573.538940429688	1350.684692382812	-434.531005859375	1502.113403320312	1418.802001953125	-425.9841613769531	1206.049926757812	1450.541870117188	-456.1238098144531	1201.7080078125	1358.767944335938	-259.9882507324219	980.6428833007812	1403.325317382812	-322.4234313964844	955.9950561523438	1450.86474609375	-391.4106750488281	1134.477416992188	1460.373046875	-211.4139251708984	791.251708984375	1383.885498046875	-216.2100677490234	878.2929077148438	1402.777954101562	-273.3544311523438	861.9694213867188	1444.846313476562	-408.7375793457031	1766.1064453125	1240.655029296875	-304.5270385742188	1793.53125	1047.963745117188	-254.2662506103516	1811.786254882812	1166.697998046875	-468.3513793945312	1752.716430664062	1120.1865234375	-432.7958068847656	1022.250183105469	1009.540283203125	-419.5171813964844	1003.810180664062	1373.74462890625	-329.3184509277344	1071.560668945312	1328.19140625	-330.2337646484375	1077.608520507812	1061.595092773438	-269.3983154296875	541.4502563476562	1063.291870117188	-341.6218566894531	669.8865966796875	1025.203857421875	-230.9031524658203	35.07028961181641	1112.9306640625	-295.8763122558594	277.5915832519531	1065.545776367188	-3.353461742401123	66.60170745849609	1122.778930664062	-68.54454803466797	58.64423751831055	1172.40234375	-116.2059326171875	44.42705154418945	1067.018920898438	-286.78515625	35.60092926025391	1186.271850585938	-512.2222900390625	518.498779296875	1328.947265625	-434.2377319335938	790.8080444335938	1359.334350585938	-800.5694580078125	69.95058441162109	1293.380004882812	-588.2006225585938	399.2960510253906	1336.040771484375	-572.3814697265625	45.16659927368164	1243.71337890625	-631.1159057617188	45.20124816894531	1203.979125976562	-671.4807739257812	41.13567352294922	1319.186645507812	-855.0962524414062	95.68638610839844	1245.999877929688	
202	2.01	-525.6134033203125	1113.176147460938	1252.265625	-526.3052368164062	1116.280151367188	1116.722290039062	-531.5640258789062	1154.237182617188	1185.848754882812	-292.8680114746094	1331.295288085938	1178.729614257812	-546.748046875	1305.21826171875	1200.017700195312	-490.7085876464844	1593.483276367188	1173.40966796875	-317.5849304199219	1468.287719726562	1167.196655273438	-554.5872192382812	1419.767211914062	1274.971313476562	-509.2585754394531	1571.066162109375	1074.048583984375	-434.1073303222656	1544.685302734375	996.7725830078125	-483.1100463867188	1415.117797851562	936.98095703125	-517.7876586914062	1199.145141601562	927.2373657226562	-572.2335815429688	1203.941040039062	997.9276123046875	-476.2125549316406	923.5421142578125	965.0953369140625	-566.1083984375	920.1455688476562	954.5231323242188	-529.8468627929688	1082.156494140625	926.5603637695312	-509.8346252441406	732.3292846679688	989.9951171875	-558.8202514648438	840.398681640625	953.2880249023438	-488.4940490722656	834.0670166015625	957.9976196289062	-416.4980773925781	1575.645263671875	1348.414306640625	-426.4421997070312	1504.298706054688	1416.656616210938	-418.9365844726562	1208.233032226562	1447.833984375	-448.480712890625	1204.161254882812	1356.2138671875	-254.9766845703125	981.0773315429688	1401.698852539062	-317.804931640625	957.2567138671875	1449.1259765625	-385.0008544921875	1136.4716796875	1457.903930664062	-208.5146942138672	791.080322265625	1382.761474609375	-212.4033660888672	878.2161254882812	1401.486083984375	-269.7825012207031	862.6734008789062	1443.434326171875	-400.7557983398438	1767.964477539062	1238.291748046875	-297.5501708984375	1795.492065429688	1045.075805664062	-246.7289276123047	1813.862060546875	1163.55810546875	-460.9579467773438	1754.407592773438	1118.123046875	-423.9373168945312	1024.552490234375	1007.17138671875	-410.4574584960938	1005.070922851562	1371.457763671875	-320.478515625	1073.156372070312	1325.920654296875	-321.441650390625	1079.723999023438	1059.402465820312	-263.7384033203125	542.3746948242188	1062.128051757812	-334.3602905273438	671.5557861328125	1023.840515136719	-230.6753540039062	34.95009613037109	1112.576538085938	-292.7872619628906	278.3996276855469	1064.008056640625	-2.659370422363281	65.39518737792969	1123.016357421875	-68.25747680664062	58.36968231201172	1172.67333984375	-115.634765625	44.18868637084961	1067.056640625	-286.8514709472656	35.88387298583984	1185.6953125	-501.9156188964844	519.3058471679688	1328.064575195312	-424.5645446777344	792.0029296875	1357.330810546875	-798.7703857421875	74.36039733886719	1293.871337890625	-580.1666870117188	401.2708129882812	1335.720703125	-571.81982421875	44.85821914672852	1243.770751953125	-630.2589111328125	45.85498809814453	1203.9990234375	-670.536865234375	41.37944030761719	1319.115478515625	-852.08251953125	102.8534240722656	1246.948608398438	
203	2.02	-516.5203857421875	1114.7822265625	1250.180541992188	-517.2991943359375	1118.303955078125	1114.565307617188	-522.6703491210938	1156.013671875	1183.789184570312	-284.2229919433594	1333.419189453125	1176.602783203125	-538.00146484375	1306.795654296875	1198.206420898438	-482.7786865234375	1595.165771484375	1171.132568359375	-309.2721557617188	1470.359741210938	1164.98486328125	-545.9423828125	1421.395629882812	1273.018798828125	-501.2858581542969	1572.590087890625	1071.8759765625	-426.0320129394531	1546.368041992188	994.5640258789062	-474.6605224609375	1416.677612304688	934.8350219726562	-508.7446899414062	1200.662475585938	925.1796264648438	-563.026123046875	1205.126342773438	995.9384765625	-466.3822937011719	925.1270141601562	962.7852783203125	-556.3338623046875	921.4615478515625	952.4459228515625	-520.4764404296875	1083.647216796875	924.4539184570312	-499.5076599121094	733.780029296875	987.8111572265625	-548.8116455078125	841.7667846679688	951.1793823242188	-478.46435546875	835.5762329101562	955.7418823242188	-408.3804931640625	1577.857543945312	1346.084594726562	-418.3028869628906	1506.611206054688	1414.468017578125	-412.0066528320312	1210.576904296875	1445.159545898438	-440.9001770019531	1206.71240234375	1353.590087890625	-250.0554962158203	981.6967163085938	1400.158813476562	-313.2868957519531	958.6918334960938	1447.435180664062	-378.7181091308594	1138.615600585938	1455.482299804688	-205.7344970703125	791.1083374023438	1381.610717773438	-208.6949768066406	878.3294677734375	1400.224609375	-266.3217468261719	863.5480346679688	1442.027221679688	-392.8076171875	1769.929809570312	1235.899291992188	-290.5846252441406	1797.557983398438	1042.176025390625	-239.2133026123047	1816.02001953125	1160.407348632812	-453.589111328125	1756.231811523438	1116.011596679688	-415.1063232421875	1026.862670898438	1004.761108398438	-401.1787719726562	1006.48486328125	1369.08349609375	-311.4715881347656	1074.893798828125	1323.506713867188	-312.5928344726562	1081.941040039062	1057.077880859375	-258.2846374511719	543.292236328125	1060.848022460938	-327.2352294921875	673.220458984375	1022.463012695312	-230.5274200439453	34.79627227783203	1112.199829101562	-289.9668884277344	279.2031860351562	1062.511840820312	-2.154903888702393	64.55949401855469	1123.261962890625	-68.12566375732422	58.36434936523438	1172.961059570312	-115.1495208740234	44.06970596313477	1067.139892578125	-286.9901123046875	36.06794357299805	1185.116577148438	-490.9513854980469	520.1403198242188	1327.30859375	-414.5419921875	793.3251953125	1355.321655273438	-796.5968017578125	79.17995452880859	1294.545776367188	-571.5164794921875	403.3707580566406	1335.537719726562	-571.317626953125	44.58615875244141	1243.871826171875	-629.397216796875	46.5475959777832	1204.005004882812	-669.5136108398438	41.67478942871094	1319.030639648438	-848.5259399414062	110.4548950195312	1248.032348632812	
204	2.03	-507.3105163574219	1116.4443359375	1248.014282226562	-508.2155456542969	1120.304809570312	1112.327514648438	-513.669677734375	1157.78955078125	1181.625854492188	-275.5294189453125	1335.614501953125	1174.353271484375	-529.1504516601562	1308.350341796875	1196.298583984375	-474.8735656738281	1596.847900390625	1168.840087890625	-300.9470825195312	1472.504028320312	1162.696655273438	-537.21435546875	1422.991333007812	1271.020385742188	-493.3775329589844	1574.136962890625	1069.71875	-418.0140075683594	1548.133666992188	992.324951171875	-466.2500915527344	1418.322021484375	932.6250610351562	-499.6394653320312	1202.243530273438	923.01708984375	-553.7100219726562	1206.276611328125	993.8453369140625	-456.1788024902344	926.828369140625	960.3201293945312	-546.15380859375	922.8068237304688	950.2112426757812	-510.9398803710938	1085.192138671875	922.2258911132812	-488.5672912597656	735.3023071289062	985.4319458007812	-538.3116455078125	843.17333984375	948.9165649414062	-467.9520263671875	837.2015991210938	953.3076171875	-400.2464904785156	1580.100952148438	1343.696166992188	-410.1422424316406	1508.977172851562	1412.234130859375	-405.1874084472656	1213.00732421875	1442.540405273438	-433.4043273925781	1209.294799804688	1350.927124023438	-245.1868133544922	982.4553833007812	1398.711791992188	-308.8291015625	960.2408447265625	1445.806762695312	-372.5442810058594	1140.839477539062	1453.12646484375	-203.0033569335938	791.2997436523438	1380.431884765625	-205.0257415771484	878.5928955078125	1398.991943359375	-262.9119567871094	864.5421752929688	1440.630615234375	-384.9141235351562	1771.935302734375	1233.49365234375	-283.6484375	1799.680297851562	1039.282592773438	-231.7445983886719	1818.2138671875	1157.266845703125	-446.2619018554688	1758.1220703125	1113.864501953125	-406.3210754394531	1029.095336914062	1002.329833984375	-391.7122497558594	1008.023559570312	1366.624633789062	-302.3235778808594	1076.737060546875	1320.962890625	-303.6818237304688	1084.17724609375	1054.63623046875	-253.1235961914062	544.1019897460938	1059.452270507812	-320.3499450683594	674.7780151367188	1021.102233886719	-230.4189300537109	34.62723541259766	1111.818481445312	-287.4196472167969	279.9385681152344	1061.10205078125	-1.755938172340393	63.90875625610352	1123.515014648438	-68.07986450195312	58.47991180419922	1173.279541015625	-114.7105865478516	44.00941467285156	1067.268920898438	-287.1562805175781	36.19474792480469	1184.552734375	-479.3221130371094	520.9769287109375	1326.72509765625	-404.19287109375	794.7531127929688	1353.336181640625	-793.902587890625	84.50627136230469	1295.495361328125	-562.1942138671875	405.5470581054688	1335.532348632812	-570.9126586914062	44.35975646972656	1244.012573242188	-628.5462036132812	47.27553939819336	1204.000366210938	-668.4011840820312	42.02563858032227	1318.945922851562	-844.3630981445312	118.4293823242188	1249.271606445312	
